<svg xmlns="http://www.w3.org/2000/svg" width="860" height="520" viewBox="0 0 860 520">
<title>Stem-only source-reuse scaling</title>
<desc>Wall-clock p50 for the original C1 stem and C1-SR source reuse across active output-channel widths.</desc>
<rect width="100%" height="100%" fill="#0d151b"/>
<text x="86" y="26" fill="#f4f7f5" font-family="-apple-system,BlinkMacSystemFont,Helvetica,sans-serif" font-size="19" font-weight="700">How source reuse scales</text>
<text x="86" y="48" fill="#9aaab3" font-family="-apple-system,BlinkMacSystemFont,Helvetica,sans-serif" font-size="12">Stem-only controlled microbenchmark · Release · 224×224 NV12 · wall p50</text>
<line x1="86" y1="434.0" x2="826" y2="434.0" stroke="#26343d" stroke-width="1"/>
<text x="74" y="438.0" text-anchor="end" fill="#9aaab3" font-family="SFMono-Regular,Menlo,monospace" font-size="11">0.00</text>
<line x1="86" y1="351.6" x2="826" y2="351.6" stroke="#26343d" stroke-width="1"/>
<text x="74" y="355.6" text-anchor="end" fill="#9aaab3" font-family="SFMono-Regular,Menlo,monospace" font-size="11">0.05</text>
<line x1="86" y1="269.1" x2="826" y2="269.1" stroke="#26343d" stroke-width="1"/>
<text x="74" y="273.1" text-anchor="end" fill="#9aaab3" font-family="SFMono-Regular,Menlo,monospace" font-size="11">0.10</text>
<line x1="86" y1="186.7" x2="826" y2="186.7" stroke="#26343d" stroke-width="1"/>
<text x="74" y="190.7" text-anchor="end" fill="#9aaab3" font-family="SFMono-Regular,Menlo,monospace" font-size="11">0.15</text>
<line x1="86" y1="104.2" x2="826" y2="104.2" stroke="#26343d" stroke-width="1"/>
<text x="74" y="108.2" text-anchor="end" fill="#9aaab3" font-family="SFMono-Regular,Menlo,monospace" font-size="11">0.20</text>
<line x1="86" y1="40" x2="86" y2="434" stroke="#71808a"/>
<line x1="86" y1="434" x2="826" y2="434" stroke="#71808a"/>
<line x1="86.0" y1="434" x2="86.0" y2="439" stroke="#71808a"/>
<text x="86.0" y="456" text-anchor="middle" fill="#d5dfe2" font-family="SFMono-Regular,Menlo,monospace" font-size="12">8</text>
<line x1="234.0" y1="434" x2="234.0" y2="439" stroke="#71808a"/>
<text x="234.0" y="456" text-anchor="middle" fill="#d5dfe2" font-family="SFMono-Regular,Menlo,monospace" font-size="12">16</text>
<line x1="382.0" y1="434" x2="382.0" y2="439" stroke="#71808a"/>
<text x="382.0" y="456" text-anchor="middle" fill="#d5dfe2" font-family="SFMono-Regular,Menlo,monospace" font-size="12">24</text>
<line x1="530.0" y1="434" x2="530.0" y2="439" stroke="#71808a"/>
<text x="530.0" y="456" text-anchor="middle" fill="#d5dfe2" font-family="SFMono-Regular,Menlo,monospace" font-size="12">32</text>
<line x1="678.0" y1="434" x2="678.0" y2="439" stroke="#71808a"/>
<text x="678.0" y="456" text-anchor="middle" fill="#d5dfe2" font-family="SFMono-Regular,Menlo,monospace" font-size="12">40</text>
<line x1="826.0" y1="434" x2="826.0" y2="439" stroke="#71808a"/>
<text x="826.0" y="456" text-anchor="middle" fill="#d5dfe2" font-family="SFMono-Regular,Menlo,monospace" font-size="12">48</text>
<polyline points="86.0,145.5 234.0,154.9 382.0,146.4 530.0,138.3 678.0,123.5 826.0,106.3" fill="none" stroke="#f0b46a" stroke-width="3"/>
<polyline points="86.0,100.1 234.0,144.8 382.0,144.4 530.0,141.7 678.0,128.3 826.0,122.6" fill="none" stroke="#64e6c4" stroke-width="3"/>
<circle cx="86.0" cy="145.5" r="4" fill="#f0b46a"/>
<circle cx="234.0" cy="154.9" r="4" fill="#f0b46a"/>
<circle cx="382.0" cy="146.4" r="4" fill="#f0b46a"/>
<circle cx="530.0" cy="138.3" r="4" fill="#f0b46a"/>
<circle cx="678.0" cy="123.5" r="4" fill="#f0b46a"/>
<circle cx="826.0" cy="106.3" r="4" fill="#f0b46a"/>
<circle cx="86.0" cy="100.1" r="4" fill="#64e6c4"/>
<circle cx="234.0" cy="144.8" r="4" fill="#64e6c4"/>
<circle cx="382.0" cy="144.4" r="4" fill="#64e6c4"/>
<circle cx="530.0" cy="141.7" r="4" fill="#64e6c4"/>
<circle cx="678.0" cy="128.3" r="4" fill="#64e6c4"/>
<circle cx="826.0" cy="122.6" r="4" fill="#64e6c4"/>
<text x="24" y="240" transform="rotate(-90 24 240)" text-anchor="middle" fill="#d5dfe2" font-family="-apple-system,BlinkMacSystemFont,Helvetica,sans-serif" font-size="12">stem/frontend p50 (ms)</text>
<text x="456.0" y="490" text-anchor="middle" fill="#d5dfe2" font-family="-apple-system,BlinkMacSystemFont,Helvetica,sans-serif" font-size="12">active output channels</text>
<rect x="600" y="66" width="14" height="4" fill="#f0b46a"/><text x="622" y="71" fill="#d5dfe2" font-family="-apple-system,BlinkMacSystemFont,Helvetica,sans-serif" font-size="12">C1</text>
<rect x="660" y="66" width="14" height="4" fill="#64e6c4"/><text x="682" y="71" fill="#d5dfe2" font-family="-apple-system,BlinkMacSystemFont,Helvetica,sans-serif" font-size="12">C1-SR</text>
<text x="86" y="505" fill="#71808a" font-family="-apple-system,BlinkMacSystemFont,Helvetica,sans-serif" font-size="10">Partial widths isolate the source-reuse mechanism; they are not complete alternate neural networks.</text>
</svg>
